<svg xmlns="http://www.w3.org/2000/svg" xmlns:xlink="http://www.w3.org/1999/xlink" width="40" height="40" viewBox="0 0 40 40"><defs><style>.a{fill:none;}.b,.e{fill:#fff;}.b{stroke:#707070;}.b,.d{opacity:0;}.c{clip-path:url(#a);}.f{fill:#7a7a7b;}.g{stroke:none;}</style><clipPath id="a"><rect class="a" width="35" height="30"/></clipPath></defs><g transform="translate(-410 -778)"><g class="b" transform="translate(410 778)"><rect class="g" width="40" height="40"/><rect class="a" x="0.5" y="0.5" width="39" height="39"/></g><g transform="translate(430.5 798)"><g class="c" transform="translate(-17.5 -15)"><g class="d"><g class="c"><rect class="e" width="35" height="30"/></g></g><path class="f" d="M31.5,18.5l-.2-.5a24.1,24.1,0,0,0-3.9-7,.8.8,0,0,0,0-1l-.6-.6.8-.8a.8.8,0,0,0,0-1.1L25.9,5.8a.7.7,0,0,0-1,0l-.8.8L23.6,6a.7.7,0,0,0-1,0,26.4,26.4,0,0,0-7-3.8L15,2a.8.8,0,0,0-.8,1.3L19.9,9a.8.8,0,0,0,.2.8l.5.6-8.5,8.5a1,1,0,0,0-.9.1L4.7,25.5a.8.8,0,0,0,0,1.1L7.2,29h.5l.5-.2,6.5-6.5a.7.7,0,0,0,.1-.9l8.5-8.5.6.6.5.2h.3l5.6,5.6.5.2h.4a.7.7,0,0,0,.3-.9M25.4,7.4l.6.7-.2.2-.6-.7ZM7.7,27.2,6.3,25.8l5.3-5.3L13,21.9Zm6.1-6.9-.6-.6,8.4-8.4.6.6Zm10.6-8.4L21.6,9.1,23,7.7l2.8,2.8ZM21.5,7.1l-.6.6L18,4.9a25.6,25.6,0,0,1,3.5,2.2m4.3,5.6.6-.6a24.7,24.7,0,0,1,2.2,3.4Z"/></g></g></g></svg>