<svg xmlns="http://www.w3.org/2000/svg" width="20" height="20" viewBox="0 0 20 20"><defs><style>.a{fill:#fa0;}.b{fill:#fff;}</style></defs><rect class="a" width="20" height="20" rx="10"/><path class="b" d="M66.11,42.01a2.334,2.334,0,0,0-1.36-.8A1.843,1.843,0,0,0,65.768,39.2a1.983,1.983,0,0,0-.284-.89,1.78,1.78,0,0,0-.641-.606,3.532,3.532,0,0,0-.878-.35,6.938,6.938,0,0,0-1.088-.175V35.225h-1.2v1.9q-.311,0-.948.016v-1.92h-1.2v1.959q-.257.008-.754.008l-1.648-.008v1.275H58a.617.617,0,0,1,.692.529v2.231a.792.792,0,0,1,.124.008h-.124v3.124a.415.415,0,0,1-.451.4h-.863l-.241,1.422h1.554l.428,0,.42,0v1.982h1.2V46.2q.326.008.948.008v1.951h1.2V46.176a9.315,9.315,0,0,0,1.131-.117,4.609,4.609,0,0,0,.944-.268,2.55,2.55,0,0,0,.754-.455,2.145,2.145,0,0,0,.5-.692,2.939,2.939,0,0,0,.252-.972,2.3,2.3,0,0,0-.35-1.663m-5.355-3.466.307,0,.42-.008q.167,0,.451.019a4.3,4.3,0,0,1,.478.062,2.664,2.664,0,0,1,.427.128,1.155,1.155,0,0,1,.373.218,1.078,1.078,0,0,1,.237.326,1.02,1.02,0,0,1,.1.455,1.082,1.082,0,0,1-.07.4.747.747,0,0,1-.21.3,2.127,2.127,0,0,1-.288.21,1.317,1.317,0,0,1-.377.144q-.229.054-.4.085a3.274,3.274,0,0,1-.428.043l-.389.016q-.132,0-.361,0l-.268,0V38.543h0Zm3.268,5.293a1.1,1.1,0,0,1-.19.311,1.077,1.077,0,0,1-.307.233,2.622,2.622,0,0,1-.369.163,2.971,2.971,0,0,1-.431.109q-.253.047-.443.066t-.455.031q-.264.012-.412.012t-.373,0l-.288,0V42.126l.369-.008q.307-.008.5-.008t.536.023a4.584,4.584,0,0,1,.575.07,3.8,3.8,0,0,1,.509.144,1.476,1.476,0,0,1,.447.237,1.166,1.166,0,0,1,.287.358,1.11,1.11,0,0,1,.043.894" transform="matrix(0.966, -0.259, 0.259, 0.966, -60.169, -14.297)"/></svg>