<svg xmlns="http://www.w3.org/2000/svg" xmlns:xlink="http://www.w3.org/1999/xlink" width="150" height="150" viewBox="0 0 150 150"><defs><style>.a,.e{fill:none;}.b{clip-path:url(#a);}.c{opacity:0;}.d{fill:#fff;}.e{stroke:#737373;stroke-linecap:round;stroke-linejoin:round;stroke-width:3px;}</style><clipPath id="a"><rect class="a" width="150" height="150"/></clipPath></defs><g transform="translate(75 75)"><g class="b" transform="translate(-75 -75)"><g class="c"><g class="b"><g class="c"><g class="b"><rect width="150" height="150"/></g></g></g></g><g class="c"><g class="b"><rect class="d" width="150" height="150"/></g></g><path class="e" d="M116.3,106.2H24.4V60.8h91.9a5.7,5.7,0,0,1,5.7,5.7v33.9a5.7,5.7,0,0,1-5.7,5.8Z"/><path class="e" d="M12.7,54H24.4v60.1"/><rect class="e" width="5" height="15.25" transform="translate(19.4 71.4)"/><rect class="e" width="45.2" height="5.41" transform="translate(33.4 106.2)"/><rect class="e" width="5.4" height="5.41" transform="translate(82.6 106.2)"/><path class="e" d="M48.3,83.5A5.3,5.3,0,1,0,43,88.8a5.3,5.3,0,0,0,5.3-5.3Z"/><path class="e" d="M56.4,83.5A13.4,13.4,0,1,0,43,96.8,13.4,13.4,0,0,0,56.4,83.5Z"/><path class="e" d="M78.2,83.5a5.3,5.3,0,1,0-5.3,5.3,5.3,5.3,0,0,0,5.3-5.3Z"/><path class="e" d="M86.3,83.5A13.4,13.4,0,1,0,72.9,96.8,13.4,13.4,0,0,0,86.3,83.5Z"/><path class="e" d="M107.9,83.5a5.3,5.3,0,1,0-5.3,5.3,5.3,5.3,0,0,0,5.3-5.3Z"/><path class="e" d="M116,83.5a13.4,13.4,0,1,0-13.4,13.4A13.4,13.4,0,0,0,116,83.5Z"/><path class="e" d="M92.7,102.8l-4.8-2.1H58l-4.9,2.1"/><path class="e" d="M53.1,64.2,58,66.3H87.9l4.8-2.1"/><path class="e" d="M39.6,45.4h92.8a4.9,4.9,0,0,1,4.9,4.9V85.9a4.9,4.9,0,0,1-4.9,4.9"/><path class="e" d="M28,38.6H39.6V54.9"/><path class="e" d="M68.4,48.8l4.9,2.1h29.8l4.9-2.1"/></g></g></svg>