<svg xmlns="http://www.w3.org/2000/svg" xmlns:xlink="http://www.w3.org/1999/xlink" width="150" height="150" viewBox="0 0 150 150"><defs><style>.a,.e{fill:none;}.b{clip-path:url(#a);}.c{opacity:0;}.d{fill:#fff;}.e{stroke:#737373;stroke-linecap:round;stroke-linejoin:round;stroke-width:3px;}</style><clipPath id="a"><rect class="a" width="150" height="150"/></clipPath></defs><g transform="translate(75 75)"><g class="b" transform="translate(-75 -75)"><g class="c"><g class="b"><rect class="d" width="150" height="150"/></g></g><g class="c"><g class="b"><g class="c"><g class="b"><rect width="150" height="150"/></g></g></g></g><path class="e" d="M116.3,100.1H33.4v-42h82.9a12.8,12.8,0,0,1,12.8,12.8V87.4a12.8,12.8,0,0,1-12.8,12.7Z"/><path class="e" d="M20.8,44H33.4v64.6"/><rect class="e" width="5.4" height="16.39" transform="translate(28 62.7)"/><rect class="e" width="48.7" height="5.81" transform="translate(43.1 100.1)"/><rect class="e" width="5.8" height="5.81" transform="translate(96 100.1)"/><path class="e" d="M110.3,79.1a5,5,0,1,0-5,5A5,5,0,0,0,110.3,79.1Z"/><line class="e" x2="46.6" transform="translate(41.9 73.3)"/><line class="e" x2="43.5" transform="translate(41.9 79.1)"/><line class="e" x2="46.6" transform="translate(41.9 85)"/><path class="e" d="M117.5,79.1a12.2,12.2,0,1,0-12.2,12.2,12.2,12.2,0,0,0,12.2-12.2Z"/></g></g></svg>