<svg xmlns="http://www.w3.org/2000/svg" xmlns:xlink="http://www.w3.org/1999/xlink" width="40" height="40" viewBox="0 0 40 40"><defs><style>.a{fill:none;}.b,.e{fill:#fff;}.b{stroke:#707070;}.b,.d{opacity:0;}.c{clip-path:url(#a);}.f{fill:#7a7a7b;}.g{stroke:none;}</style><clipPath id="a"><rect class="a" width="35" height="30"/></clipPath></defs><g transform="translate(-410 -778)"><g class="b" transform="translate(410 778)"><rect class="g" width="40" height="40"/><rect class="a" x="0.5" y="0.5" width="39" height="39"/></g><g transform="translate(430.5 798)"><g class="c" transform="translate(-17.5 -15)"><g class="d"><g class="c"><rect class="e" width="35" height="30"/></g></g><path class="f" d="M11.9,17.8H26.1a.8.8,0,0,0,.7-.5L28,13.4c0-.1.1-.1.1-.2l2.5-7.8a.9.9,0,0,0-.1-.7.7.7,0,0,0-.6-.3H7.9L7.5,3.2a.9.9,0,0,0-.7-.6H4.2a.9.9,0,0,0-.8.8.8.8,0,0,0,.8.8H6.3L10.7,17,9.3,19.2a2.5,2.5,0,0,0-.1,2.5A2.3,2.3,0,0,0,11.3,23H26.4a.8.8,0,0,0,.8-.8.7.7,0,0,0-.8-.8H11.3a1,1,0,0,1-.8-.5.9.9,0,0,1,0-1Zm14.9-5.5H10.7L9.8,9.9H27.6Zm-1.3,4H12l-.9-2.5H26.3ZM28.9,5.9l-.8,2.5H9.3L8.5,5.9Z"/><path class="f" d="M13.6,23.5A2.4,2.4,0,0,0,11.2,26a2.451,2.451,0,1,0,2.4-2.5m0,3.4a1,1,0,1,1,.9-1,.9.9,0,0,1-.9,1"/><path class="f" d="M24,23.5A2.5,2.5,0,1,0,26.5,26,2.5,2.5,0,0,0,24,23.5m0,3.4a1,1,0,1,1,1-1,1,1,0,0,1-1,1"/></g></g></g></svg>