<svg xmlns="http://www.w3.org/2000/svg" xmlns:xlink="http://www.w3.org/1999/xlink" width="40" height="40" viewBox="0 0 40 40"><defs><style>.a{fill:none;}.b,.e{fill:#737373;}.b{stroke:#737373;}.b,.d{opacity:0;}.c{clip-path:url(#a);}.f{stroke:none;}</style><clipPath id="a"><rect class="a" width="35" height="30"/></clipPath></defs><g transform="translate(-410 -778)"><g class="b" transform="translate(410 778)"><rect class="f" width="40" height="40"/><rect class="a" x="0.5" y="0.5" width="39" height="39"/></g><g transform="translate(430.5 798)"><g class="c" transform="translate(-17.5 -15)"><g class="d"><g class="c"><rect class="e" width="35" height="30"/></g></g><path class="e" d="M6.5,23.6a1.9,1.9,0,0,0,1.9-1.9,1.8,1.8,0,0,0-.1-.5L14,15.8l.9.2.9-.2L18.4,18a1.8,1.8,0,0,0-.1.6,1.9,1.9,0,1,0,3.6-.8L29,10.2h.6a1.9,1.9,0,1,0-1.7-1.1l-7.1,7.7h-.6l-.8.2-2.6-2.3a1.8,1.8,0,0,0,.1-.5,1.9,1.9,0,1,0-3.7.5L7.4,20l-.8-.2a1.9,1.9,0,0,0,0,3.8"/><path class="e" d="M32.3,26.7H3.6V2.6a.8.8,0,0,0-1.5,0V27.4a.8.8,0,0,0,.8.8H32.3a.75.75,0,0,0,0-1.5"/></g></g></g></svg>