<svg xmlns="http://www.w3.org/2000/svg" width="24" height="24" viewBox="0 0 24 24"><defs><style>.a{fill:none;}.b{fill:#737373;}</style></defs><path class="a" d="M0,0H24V24H0Z"/><path class="b" d="M19,2H14.82A2.988,2.988,0,0,0,9.18,2H5A2.006,2.006,0,0,0,3,4V20a2.006,2.006,0,0,0,2,2H19a2.006,2.006,0,0,0,2-2V4A2.006,2.006,0,0,0,19,2ZM12,2a1,1,0,1,1-1,1A1,1,0,0,1,12,2Zm6,18H6a1,1,0,0,1-1-1V5A1,1,0,0,1,6,4H7V5A2.006,2.006,0,0,0,9,7h6a2.006,2.006,0,0,0,2-2V4h1a1,1,0,0,1,1,1V19A1,1,0,0,1,18,20Z"/></svg>