<svg xmlns="http://www.w3.org/2000/svg" xmlns:xlink="http://www.w3.org/1999/xlink" width="32" height="32" viewBox="0 0 32 32"><defs><style>.a,.ab,.ad,.ae,.af,.ag,.f,.h,.i,.j,.k,.m,.n,.p,.r,.t,.u,.v,.x,.z{fill:none;}.b{clip-path:url(#a);}.c{opacity:0;}.d{fill:#fff;}.e{fill:#e17726;}.f{stroke:#e17726;}.ab,.ad,.ae,.af,.ag,.f,.h,.i,.j,.k,.m,.n,.p,.r,.t,.u,.v,.x,.z{stroke-linecap:round;stroke-linejoin:round;}.ae,.ag,.f,.h{stroke-width:0.2px;}.g{fill:#e27625;}.h,.i,.j,.k{stroke:#e27625;}.i,.z{stroke-width:0.2px;}.j,.m,.r,.u,.x{stroke-width:0.2px;}.k{stroke-width:0.2px;}.l{fill:#d5bfb2;}.m,.n{stroke:#d5bfb2;}.n,.t{stroke-width:0.2px;}.o{fill:#233447;}.p{stroke:#233447;}.p,.v{stroke-width:0.2px;}.q{fill:#cc6228;}.r{stroke:#cc6228;}.s{fill:#e27525;}.t,.u,.v{stroke:#e27525;}.w{fill:#f5841f;}.af,.ag,.x{stroke:#f5841f;}.y{fill:#c0ac9d;}.z{stroke:#c0ac9d;}.aa{fill:#161616;}.ab{stroke:#161616;}.ab,.ad,.af{stroke-width:0.2px;}.ac{fill:#763e1a;}.ad,.ae{stroke:#763e1a;}</style><clipPath id="a"><rect class="a" width="32" height="32" transform="translate(0.318)"/></clipPath></defs><g transform="translate(15.682 16)"><g class="b" transform="translate(-16 -16)"><g class="c"><g class="b"><rect class="d" width="32" height="32" transform="translate(0.318)"/></g></g><path class="e" d="M32.48,4.5,22,12.26l2-4.64Z" transform="translate(-4.822 -0.9)"/><path class="f" d="M32.48,4.5,22,12.26l2-4.64Z" transform="translate(-4.822 -0.9)"/><path class="g" d="M4.9,4.5l10.4,7.84L13.38,7.62Z" transform="translate(-1.402 -0.9)"/><path class="h" d="M4.9,4.5l10.4,7.84L13.38,7.62Z" transform="translate(-1.402 -0.9)"/><path class="g" d="M29.7,27l-2.8,4.24,6,1.68,1.76-5.84Z" transform="translate(-5.802 -5.4)"/><path class="i" d="M29.7,27l-2.8,4.24,6,1.68,1.76-5.84Z" transform="translate(-5.802 -5.4)"/><path class="g" d="M3.5,27.08l1.68,5.84,6-1.68L8.38,27Z" transform="translate(-1.122 -5.4)"/><path class="j" d="M3.5,27.08l1.68,5.84,6-1.68L8.38,27Z" transform="translate(-1.122 -5.4)"/><path class="g" d="M12.28,17.1,10.6,19.58l5.92.24-.24-6.32Z" transform="translate(-2.542 -2.7)"/><path class="h" d="M12.28,17.1,10.6,19.58l5.92.24-.24-6.32Z" transform="translate(-2.542 -2.7)"/><path class="g" d="M26.24,17.08,22.16,13.4,22,19.8l5.92-.24Z" transform="translate(-4.822 -2.68)"/><path class="i" d="M26.24,17.08,22.16,13.4,22,19.8l5.92-.24Z" transform="translate(-4.822 -2.68)"/><path class="g" d="M13.1,31.28l3.52-1.68-3.04-2.4Z" transform="translate(-3.042 -5.44)"/><path class="h" d="M13.1,31.28l3.52-1.68-3.04-2.4Z" transform="translate(-3.042 -5.44)"/><path class="g" d="M22.5,29.6l3.52,1.68-.48-4.08Z" transform="translate(-4.922 -5.44)"/><path class="k" d="M22.5,29.6l3.52,1.68-.48-4.08Z" transform="translate(-4.922 -5.44)"/><path class="l" d="M26.02,31.88,22.5,30.2l.24,2.32v.96Z" transform="translate(-4.922 -6.04)"/><path class="m" d="M26.02,31.88,22.5,30.2l.24,2.32v.96Z" transform="translate(-4.922 -6.04)"/><path class="l" d="M13.1,31.88l3.28,1.6v-.96l.24-2.32Z" transform="translate(-3.042 -6.04)"/><path class="n" d="M13.1,31.88l3.28,1.6v-.96l.24-2.32Z" transform="translate(-3.042 -6.04)"/><path class="o" d="M16.56,24.74l-2.96-.88,2.08-.96Z" transform="translate(-3.142 -4.58)"/><path class="p" d="M16.56,24.74l-2.96-.88,2.08-.96Z" transform="translate(-3.142 -4.58)"/><path class="o" d="M22.7,24.74l.88-1.84,2.08.96Z" transform="translate(-4.962 -4.58)"/><path class="p" d="M22.7,24.74l.88-1.84,2.08.96Z" transform="translate(-4.962 -4.58)"/><path class="q" d="M12.4,31.24,12.88,27l-3.28.08Z" transform="translate(-2.342 -5.4)"/><path class="r" d="M12.4,31.24,12.88,27l-3.28.08Z" transform="translate(-2.342 -5.4)"/><path class="q" d="M26.3,27l.48,4.24,2.8-4.16Z" transform="translate(-5.682 -5.4)"/><path class="r" d="M26.3,27l.48,4.24,2.8-4.16Z" transform="translate(-5.682 -5.4)"/><path class="q" d="M27.92,21.1,22,21.34l.56,3.04.88-1.84,2.08.96Z" transform="translate(-4.822 -4.22)"/><path class="r" d="M27.92,21.1,22,21.34l.56,3.04.88-1.84,2.08.96Z" transform="translate(-4.822 -4.22)"/><path class="q" d="M13,23.5l2.08-.96.88,1.84.56-3.04L10.6,21.1Z" transform="translate(-2.542 -4.22)"/><path class="r" d="M13,23.5l2.08-.96.88,1.84.56-3.04L10.6,21.1Z" transform="translate(-2.542 -4.22)"/><path class="s" d="M10.6,21.1l2.48,4.88L13,23.5Z" transform="translate(-2.542 -4.22)"/><path class="t" d="M10.6,21.1l2.48,4.88L13,23.5Z" transform="translate(-2.542 -4.22)"/><path class="s" d="M26.38,23.5l-.08,2.48,2.48-4.88Z" transform="translate(-5.682 -4.22)"/><path class="u" d="M26.38,23.5l-.08,2.48,2.48-4.88Z" transform="translate(-5.682 -4.22)"/><path class="s" d="M17.86,21.4l-.56,3.04.72,3.6.16-4.72Z" transform="translate(-3.882 -4.28)"/><path class="v" d="M17.86,21.4l-.56,3.04.72,3.6.16-4.72Z" transform="translate(-3.882 -4.28)"/><path class="s" d="M21.92,21.4l-.32,1.92.16,4.72.72-3.6Z" transform="translate(-4.742 -4.28)"/><path class="v" d="M21.92,21.4l-.32,1.92.16,4.72.72-3.6Z" transform="translate(-4.742 -4.28)"/><path class="w" d="M22.52,24.98l-.72,3.6.56.4,3.04-2.4.08-2.48Z" transform="translate(-4.782 -4.82)"/><path class="x" d="M22.52,24.98l-.72,3.6.56.4,3.04-2.4.08-2.48Z" transform="translate(-4.782 -4.82)"/><path class="w" d="M13.6,24.1l.08,2.48,3.04,2.4.56-.4-.72-3.6Z" transform="translate(-3.142 -4.82)"/><path class="x" d="M13.6,24.1l.08,2.48,3.04,2.4.56-.4-.72-3.6Z" transform="translate(-3.142 -4.82)"/><path class="y" d="M20.86,33.9v-.96l-.24-.24h-4l-.24.24v.96L13.1,32.3l1.12.96,2.4,1.6h4l2.4-1.6,1.12-.96Z" transform="translate(-3.042 -6.46)"/><path class="z" d="M20.86,33.9v-.96l-.24-.24h-4l-.24.24v.96L13.1,32.3l1.12.96,2.4,1.6h4l2.4-1.6,1.12-.96Z" transform="translate(-3.042 -6.46)"/><path class="aa" d="M21.44,30.1l-.56-.4H18l-.56.4-.24,2.32.24-.24h4l.24.24Z" transform="translate(-3.862 -5.94)"/><path class="ab" d="M21.44,30.1l-.56-.4H18l-.56.4-.24,2.32.24-.24h4l.24.24Z" transform="translate(-3.862 -5.94)"/><path class="ac" d="M33.06,12.74l.88-4.32L32.58,4.5,22.5,11.94l3.84,3.36,5.52,1.6,1.28-1.44-.56-.4.8-.72-.64-.56.88-.64Z" transform="translate(-4.922 -0.9)"/><path class="ad" d="M33.06,12.74l.88-4.32L32.58,4.5,22.5,11.94l3.84,3.36,5.52,1.6,1.28-1.44-.56-.4.8-.72-.64-.56.88-.64Z" transform="translate(-4.922 -0.9)"/><path class="ac" d="M3.2,8.42l.88,4.32-.56.4.88.64-.64.56.8.72-.56.4L5.28,16.9l5.52-1.6,3.84-3.36L4.56,4.5Z" transform="translate(-1.062 -0.9)"/><path class="ae" d="M3.2,8.42l.88,4.32-.56.4.88.64-.64.56.8.72-.56.4L5.28,16.9l5.52-1.6,3.84-3.36L4.56,4.5Z" transform="translate(-1.062 -0.9)"/><path class="w" d="M32.62,19.6,27.1,18l1.68,2.48L26.3,25.36l3.28-.08h4.96Z" transform="translate(-5.682 -3.6)"/><path class="af" d="M32.62,19.6,27.1,18l1.68,2.48L26.3,25.36l3.28-.08h4.96Z" transform="translate(-5.682 -3.6)"/><path class="w" d="M10.86,18,5.34,19.6,3.5,25.28H8.38l3.28.08L9.18,20.48Z" transform="translate(-1.122 -3.6)"/><path class="ag" d="M10.86,18,5.34,19.6,3.5,25.28H8.38l3.28.08L9.18,20.48Z" transform="translate(-1.122 -3.6)"/><path class="w" d="M20.7,18.8l.4-6.08L22.7,8.4H15.5l1.6,4.32.4,6.08.16,1.92v4.72h2.88V20.72Z" transform="translate(-3.522 -1.68)"/><path class="x" d="M20.7,18.8l.4-6.08L22.7,8.4H15.5l1.6,4.32.4,6.08.16,1.92v4.72h2.88V20.72Z" transform="translate(-3.522 -1.68)"/></g></g></svg>