<svg xmlns="http://www.w3.org/2000/svg" xmlns:xlink="http://www.w3.org/1999/xlink" width="180.489" height="36" viewBox="0 0 180.489 36"><defs><linearGradient id="a" x1="0.163" y1="0.877" x2="0.956" y2="0.205" gradientUnits="objectBoundingBox"><stop offset="0" stop-color="#e84341"/><stop offset="1" stop-color="#e72d40"/></linearGradient></defs><g transform="translate(90.244 18)"><g transform="translate(-90.244 -18)"><g transform="translate(47.303 8.651)"><path d="M94.358,51.36a1.047,1.047,0,0,0,1.186,1.186h2.372A1.047,1.047,0,0,0,99.1,51.36V49.547H96.73V45.988h5.93V51.36c0,3.14-1.6,4.744-4.744,4.744H95.544c-3.14,0-4.744-1.6-4.744-4.744V44.244c0-3.14,1.6-4.744,4.744-4.744h7.116v3.558H95.544a1.047,1.047,0,0,0-1.186,1.186Z" transform="translate(-90.8 -39.43)" fill="#fff"/><path d="M124.988,56.074H121.43l-1.116-3.558h-6.14l-1.116,3.558H109.5L114.523,39.4h5.442Zm-9.7-7.116h3.977l-1.953-5.93Z" transform="translate(-96.453 -39.4)" fill="#fff"/><path d="M133.4,39.4h5.023l3.907,10.116L146.237,39.4h5.023V56.074H147.7V45.958l-3.837,10.116H140.8l-3.837-10.116V56.074H133.4Z" transform="translate(-103.679 -39.4)" fill="#fff"/><path d="M173.074,45.958v3.558h-7.116v3h7.116v3.558H162.4V39.4h10.674v3.558h-7.116v3Z" transform="translate(-112.447 -39.4)" fill="#fff"/><path d="M187.13,50.144h-2.372v5.93H181.2V39.4h7.116c3.14,0,4.744,1.6,4.744,4.744V45.33a4.234,4.234,0,0,1-2.163,4.116L193.06,56H189.5Zm-2.442-7.116v3.558h3.558a1.047,1.047,0,0,0,1.186-1.186V44.214a1.047,1.047,0,0,0-1.186-1.186Z" transform="translate(-118.13 -39.4)" fill="#fff"/><path d="M205.158,39.4v6.558H209.9V39.4h3.558V56.074H209.9V49.516h-4.744v6.558H201.6V39.4Z" transform="translate(-124.298 -39.4)" fill="#fff"/><path d="M235.788,56.074H232.23l-1.116-3.558h-6.14l-1.116,3.558H220.3L225.323,39.4h5.442Zm-9.7-7.116h3.977l-1.953-5.93Z" transform="translate(-129.951 -39.4)" fill="#fff"/><path d="M244.2,56.074V52.516h7.116A1.047,1.047,0,0,0,252.5,51.33V50.7a1.047,1.047,0,0,0-1.186-1.186h-2.372c-3.14,0-4.744-1.6-4.744-4.744v-.628c0-3.14,1.6-4.744,4.744-4.744h7.116v3.558h-7.116a1.047,1.047,0,0,0-1.186,1.186v.628a1.047,1.047,0,0,0,1.186,1.186h2.372c3.14,0,4.744,1.6,4.744,4.744v.628c0,3.14-1.6,4.744-4.744,4.744Z" transform="translate(-137.177 -39.4)" fill="#fff"/><path d="M268.258,39.4v6.558H273V39.4h3.558V56.074H273V49.516h-4.744v6.558H264.7V39.4Z" transform="translate(-143.374 -39.4)" fill="#fff"/></g><path d="M45.814,43.744v3.279h3.907V54.07A12.349,12.349,0,0,1,45.6,56.442l-1.4.349V33.14l.7.14a13.186,13.186,0,0,1,3.837,1.4v4.6h3.837c0-1.116.07-2.163.07-3.209V32.93A17.791,17.791,0,0,0,47,30.14a18.838,18.838,0,0,0-2.86-.558V27H40.93v2.372h-.209a21.767,21.767,0,0,0-3.767.279V27H33.674v3.419l-.419.14a17.023,17.023,0,0,0-5.581,3.349,13.326,13.326,0,0,0-3.488,5.023A17.023,17.023,0,0,0,23,45.209a16.465,16.465,0,0,0,1.047,5.86,13.674,13.674,0,0,0,3.279,4.953,15.419,15.419,0,0,0,5.581,3.419l.837.279V63h3.279V60.488a31.814,31.814,0,0,0,3.767.279h.14V63h3.279V60.488a20.512,20.512,0,0,0,3.7-.977A15.279,15.279,0,0,0,53.488,55.6V43.744ZM40.721,32.86h.209V43.814H37.023v-10.6a20.163,20.163,0,0,1,3.7-.349ZM30.465,53.512a10.744,10.744,0,0,1-2.512-3.837A12.543,12.543,0,0,1,30.6,36.488a11.023,11.023,0,0,1,3.07-2.163V55.674A11.79,11.79,0,0,1,30.465,53.512Zm10.4,3.628a21.768,21.768,0,0,1-3.837-.349V47.023H40.93V57.14Z" transform="translate(-23 -27)" fill="url(#a)"/></g></g></svg>