<svg xmlns="http://www.w3.org/2000/svg" width="19.996" height="19.996" viewBox="0 0 19.996 19.996"><defs><style>.a{fill:#848687;}</style></defs><g transform="translate(-2.941 0)"><path class="a" d="M19.728,9.158a10,10,0,1,0,10,10h0A9.987,9.987,0,0,0,19.728,9.158ZM19.87,19.44l-1.064,3.475h5.531a.305.305,0,0,1,.284.284v.071l-.5,1.631a.471.471,0,0,1-.355.284H15.261l1.418-4.822-1.56.5.355-1.135,1.56-.5,1.985-6.807a.471.471,0,0,1,.355-.284H21.5a.305.305,0,0,1,.284.284v.071l-1.7,5.744,1.56-.5L21.5,19.014Z" transform="translate(-6.789 -9.158)"/></g></svg>