<svg xmlns="http://www.w3.org/2000/svg" xmlns:xlink="http://www.w3.org/1999/xlink" width="1517" height="638" viewBox="0 0 1517 638"><defs><style>.a,.b{fill:#f41f33;}.b{font-size:500px;font-family:Rajdhani-Bold, Rajdhani;font-weight:700;}.c{clip-path:url(#a);}.d{fill:url(#b);}</style><clipPath id="a"><path class="a" d="M308.25,143.5h74q10.5,0,10.5,10.5V454.5q0,10.5-10.5,10.5h-41q-10.5,0-10.5-10.5v-237h-2l-51,167.5q-3,10-12.5,10h-42q-9.5,0-12.5-10l-52-168h-2V454.5q0,6-2,8.25t-8.5,2.25h-41q-10.5,0-10.5-10.5V154q0-10.5,10.5-10.5h74.5q7,0,9.5,7l53,176.5h3l53.5-176.5Q300.25,143.5,308.25,143.5Zm147,23.5V123.5q0-10,10-10h43.5q10,0,10,9.5v44q0,10-10,10h-43.5Q455.25,177,455.25,167Zm0,287.5v-234q0-10.5,10-10.5h43q10.5,0,10.5,10.5v234q0,6.5-2.25,8.5t-7.75,2h-43Q455.25,465,455.25,454.5Zm174,10.5h-42.5q-10.5,0-10.5-10.5v-234q0-10.5,10.5-10.5h42.5q10.5,0,10.5,10.5V237h2q11-27,49-27h16q78.5,0,78.5,81.5v163q0,10.5-11,10.5h-42q-10.5,0-10.5-10.5v-160q0-16-6.75-22.75T692.25,265h-18q-34.5,0-34.5,38V454.5Q639.75,465,629.25,465Zm211-298V123.5q0-10,10-10h43.5q10,0,10,9.5v44q0,10-10,10h-43.5Q840.25,177,840.25,167Zm0,287.5v-234q0-10.5,10-10.5h43q10.5,0,10.5,10.5v234q0,6.5-2.25,8.5t-7.75,2h-43Q840.25,465,840.25,454.5Zm174,10.5h-42.5q-10.5,0-10.5-10.5v-234q0-10.5,10.5-10.5h42.5q10.5,0,10.5,10.5V237h2q11-27,49-27h16q78.5,0,78.5,81.5v163q0,10.5-11,10.5h-42q-10.5,0-10.5-10.5v-160q0-16-6.75-22.75T1077.25,265h-18q-34.5,0-34.5,38V454.5Q1024.75,465,1014.25,465Zm298.5-11.5h-16.5q-38.5,0-58.25-21T1218.25,372V291.5q0-39.5,21.5-60.5t61-21h115.5q11,0,11,10.5V467q0,39-21.75,60t-60.75,21h-96q-6,0-8.25-2.25t-2.25-7.75V503.5q0-10.5,10.5-10.5h85.5q16,0,22.75-6.75t6.75-22.25V426h-2q-5.5,13.5-19.5,20.5A65.113,65.113,0,0,1,1312.75,453.5Zm51-93v-90q0-5.5-6-5.5h-47q-16,0-22.5,6.75t-6.5,22.75V369q0,16,6.5,22.5t22.5,6.5h18.5Q1363.75,398,1363.75,360.5Z" transform="translate(200 280)"/></clipPath><linearGradient id="b" x1="0.5" x2="0.5" y2="1" gradientUnits="objectBoundingBox"><stop offset="0" stop-color="#ff6c88" stop-opacity="0"/><stop offset="1" stop-color="#ff6c88"/></linearGradient></defs><g transform="translate(-200 -280)"><text class="b" transform="translate(200 280)"><tspan x="62.25" y="465">Mining</tspan></text><path class="a" d="M308.25,143.5h74q10.5,0,10.5,10.5V454.5q0,10.5-10.5,10.5h-41q-10.5,0-10.5-10.5v-237h-2l-51,167.5q-3,10-12.5,10h-42q-9.5,0-12.5-10l-52-168h-2V454.5q0,6-2,8.25t-8.5,2.25h-41q-10.5,0-10.5-10.5V154q0-10.5,10.5-10.5h74.5q7,0,9.5,7l53,176.5h3l53.5-176.5Q300.25,143.5,308.25,143.5Zm147,23.5V123.5q0-10,10-10h43.5q10,0,10,9.5v44q0,10-10,10h-43.5Q455.25,177,455.25,167Zm0,287.5v-234q0-10.5,10-10.5h43q10.5,0,10.5,10.5v234q0,6.5-2.25,8.5t-7.75,2h-43Q455.25,465,455.25,454.5Zm174,10.5h-42.5q-10.5,0-10.5-10.5v-234q0-10.5,10.5-10.5h42.5q10.5,0,10.5,10.5V237h2q11-27,49-27h16q78.5,0,78.5,81.5v163q0,10.5-11,10.5h-42q-10.5,0-10.5-10.5v-160q0-16-6.75-22.75T692.25,265h-18q-34.5,0-34.5,38V454.5Q639.75,465,629.25,465Zm211-298V123.5q0-10,10-10h43.5q10,0,10,9.5v44q0,10-10,10h-43.5Q840.25,177,840.25,167Zm0,287.5v-234q0-10.5,10-10.5h43q10.5,0,10.5,10.5v234q0,6.5-2.25,8.5t-7.75,2h-43Q840.25,465,840.25,454.5Zm174,10.5h-42.5q-10.5,0-10.5-10.5v-234q0-10.5,10.5-10.5h42.5q10.5,0,10.5,10.5V237h2q11-27,49-27h16q78.5,0,78.5,81.5v163q0,10.5-11,10.5h-42q-10.5,0-10.5-10.5v-160q0-16-6.75-22.75T1077.25,265h-18q-34.5,0-34.5,38V454.5Q1024.75,465,1014.25,465Zm298.5-11.5h-16.5q-38.5,0-58.25-21T1218.25,372V291.5q0-39.5,21.5-60.5t61-21h115.5q11,0,11,10.5V467q0,39-21.75,60t-60.75,21h-96q-6,0-8.25-2.25t-2.25-7.75V503.5q0-10.5,10.5-10.5h85.5q16,0,22.75-6.75t6.75-22.25V426h-2q-5.5,13.5-19.5,20.5A65.113,65.113,0,0,1,1312.75,453.5Zm51-93v-90q0-5.5-6-5.5h-47q-16,0-22.5,6.75t-6.5,22.75V369q0,16,6.5,22.5t22.5,6.5h18.5Q1363.75,398,1363.75,360.5Z" transform="translate(200 280)"/><g class="c"><path class="d" d="M35,0,70,61H0Z" transform="translate(1082.729 508.494) rotate(129)"/><path class="d" d="M65,0l65,113H0Z" transform="translate(920.842 733.902) rotate(-97)"/><path class="d" d="M65,0l65,113H0Z" transform="translate(640.175 581.455) rotate(-87)"/><path class="d" d="M79,0l79,137H0Z" transform="matrix(-0.839, 0.545, -0.545, -0.839, 569.561, 530.923)"/><path class="d" d="M79,0l79,137H0Z" transform="matrix(-0.839, 0.545, -0.545, -0.839, 1475.561, 682.923)"/><path class="d" d="M79,0l79,137H0Z" transform="matrix(-0.839, 0.545, -0.545, -0.839, 1186.561, 407.923)"/><path class="d" d="M110,0,220,245H0Z" transform="translate(1597.922 677.012) rotate(-155)"/><path class="d" d="M110,0,220,245H0Z" transform="translate(1311.387 806.406) rotate(-47)"/><path class="d" d="M110,0,220,245H0Z" transform="translate(958.387 696.406) rotate(-47)"/><path class="d" d="M110,0,220,245H0Z" transform="matrix(-0.391, 0.921, -0.921, -0.391, 736.74, 713.11)"/><path class="d" d="M70,0l70,155H0Z" transform="translate(781.494 625.487) rotate(99)"/><path class="d" d="M70,0l70,155H0Z" transform="translate(269.795 771.151) rotate(-106)"/><path class="d" d="M70,0l70,155H0Z" transform="matrix(-0.545, 0.839, -0.839, -0.545, 398.119, 503.004)"/><path class="d" d="M70,0l70,155H0Z" transform="matrix(-0.914, -0.407, 0.407, -0.914, 917.424, 608.773)"/><path class="d" d="M70,0l70,155H0Z" transform="translate(1386.188 528.067) rotate(152)"/></g></g></svg>